# xmcd
#
# Track frame offsets: 
#        150
#        16005
#        31881
#        44183
#        59703
#        72200
#        85187
#        95954
#        118899
#        132169
#        145905
#        172583
#        185368
#        197026
#        214536
#
# Disc length: 2901 seconds
#
# Revision: 0
# Processed by: cddbd v1.5.2PL0 Copyright (c) Steve Scherf et al.
# Submitted via: ExactAudioCopy v0.99pb3
#
DISCID=d80b530f
DTITLE=Barrelhouse Chuck - 35 Years Of Chicago Blues Piano - Vol. 2
DYEAR=2012
DGENRE=Blues
TTITLE0=She's Got A Thing Going On
TTITLE1=Jones Boogie
TTITLE2=Forty Nights
TTITLE3=Salute To Sunnyland Slim
TTITLE4=Call My Job
TTITLE5=Someday
TTITLE6=I Ain't Got You
TTITLE7=Wah-Wah Blues
TTITLE8=Barrelhouse Woman
TTITLE9=Searching For My Baby
TTITLE10=You Told Me Baby
TTITLE11=Hot And Heavy
TTITLE12=Break It Up
TTITLE13=Get Your Money
TTITLE14=Gigilo
EXTD=
EXTT0=
EXTT1=
EXTT2=
EXTT3=
EXTT4=
EXTT5=
EXTT6=
EXTT7=
EXTT8=
EXTT9=
EXTT10=
EXTT11=
EXTT12=
EXTT13=
EXTT14=
PLAYORDER=
